<svg width="25" height="28" viewBox="0 0 25 28" fill="none" xmlns="http://www.w3.org/2000/svg">
<path d="M17.3662 0.666751C17.9323 0.665421 18.3799 1.1052 18.3812 1.69157L18.3825 2.69107C22.0554 2.97893 24.4816 5.48168 24.4855 9.31975L24.5 20.5541C24.5053 24.7387 21.8763 27.3134 17.6624 27.3201L7.36919 27.3334C3.1816 27.3387 0.519764 24.7027 0.514499 20.5062L0.500009 9.40371C0.494752 5.54031 2.83538 3.04423 6.50824 2.70707L6.50692 1.70757C6.5056 1.12119 6.94003 0.680081 7.51926 0.680081C8.09849 0.678748 8.53292 1.11853 8.53423 1.7049L8.53555 2.63777L16.3552 2.62711L16.3539 1.69424C16.3526 1.10787 16.787 0.668087 17.3662 0.666751ZM17.9033 19.5893H17.8902C17.2846 19.6039 16.7988 20.1117 16.812 20.7247C16.8133 21.3377 17.3017 21.8428 17.9073 21.8561C18.5247 21.8548 19.0249 21.3471 19.0236 20.7207C19.0236 20.0944 18.522 19.5893 17.9033 19.5893ZM7.05588 19.5906C6.45031 19.6173 5.9764 20.125 5.97771 20.738C6.00536 21.3511 6.5056 21.8308 7.11117 21.8028C7.70488 21.7762 8.17748 21.2684 8.14983 20.6554C8.13667 20.0557 7.64827 19.5893 7.05588 19.5906ZM12.4796 19.5839C11.874 19.6119 11.4014 20.1183 11.4014 20.7314C11.4291 21.3444 11.9293 21.8228 12.5349 21.7962C13.1273 21.7682 13.6012 21.2618 13.5736 20.6474C13.5604 20.049 13.072 19.5826 12.4796 19.5839ZM7.04929 14.793C6.44373 14.8197 5.97113 15.3274 5.97244 15.9404C5.99878 16.5535 6.50034 17.0332 7.1059 17.0052C7.6983 16.9786 8.1709 16.4708 8.14325 15.8578C8.13009 15.2581 7.64301 14.7917 7.04929 14.793ZM12.4743 14.7464C11.8688 14.773 11.3949 15.2808 11.3962 15.8938C11.4225 16.5068 11.9241 16.9852 12.5296 16.9586C13.122 16.9306 13.5946 16.4242 13.5683 15.8112C13.5538 15.2115 13.0667 14.745 12.4743 14.7464ZM17.8981 14.753C17.2925 14.7664 16.8186 15.2594 16.8199 15.8725V15.8871C16.8331 16.5002 17.3333 16.9653 17.9402 16.9519C18.5326 16.9373 19.0052 16.4295 18.992 15.8165C18.9644 15.2301 18.4891 14.7517 17.8981 14.753ZM16.3578 4.67941L8.53818 4.69007L8.5395 5.7682C8.5395 6.34258 8.10639 6.79568 7.52716 6.79568C6.94793 6.79702 6.51219 6.34524 6.51219 5.77086L6.51087 4.74471C3.94382 5.00192 2.52338 6.51049 2.52732 9.40105L2.52865 9.81551L22.4595 9.78885V9.32242C22.4029 6.45719 20.9654 4.95394 18.3851 4.73005L18.3865 5.75621C18.3865 6.32925 17.9402 6.78369 17.3741 6.78369C16.7949 6.78502 16.3591 6.33192 16.3591 5.75887L16.3578 4.67941Z" fill="#006EE9"/>
</svg>
