<svg width="20" height="24" viewBox="0 0 20 24" fill="none" xmlns="http://www.w3.org/2000/svg">
<path d="M18.4 3.42857H13.6V2.14286C13.6 1.57454 13.3893 1.02949 13.0142 0.627628C12.6391 0.225765 12.1304 0 11.6 0H7.6C7.06957 0 6.56086 0.225765 6.18579 0.627628C5.81071 1.02949 5.6 1.57454 5.6 2.14286V3.42857H0.8C0.587827 3.42857 0.384344 3.51888 0.234315 3.67962C0.0842856 3.84037 0 4.05839 0 4.28571C0 4.51304 0.0842856 4.73106 0.234315 4.89181C0.384344 5.05255 0.587827 5.14286 0.8 5.14286H1.65L2.6 21.4779C2.671 22.9163 3.7 24 5 24H14.2C15.5065 24 16.515 22.9404 16.6 21.4821L17.55 5.14286H18.4C18.6122 5.14286 18.8157 5.05255 18.9657 4.89181C19.1157 4.73106 19.2 4.51304 19.2 4.28571C19.2 4.05839 19.1157 3.84037 18.9657 3.67962C18.8157 3.51888 18.6122 3.42857 18.4 3.42857ZM6.4285 20.5714H6.4C6.19267 20.5716 5.99339 20.4855 5.84416 20.3313C5.69492 20.1771 5.60739 19.9668 5.6 19.7448L5.2 7.74482C5.19244 7.51749 5.26948 7.29626 5.41416 7.12979C5.55885 6.96331 5.75933 6.86524 5.9715 6.85714C6.18367 6.84904 6.39016 6.93158 6.54553 7.0866C6.70091 7.24162 6.79244 7.45642 6.8 7.68375L7.2 19.6838C7.20381 19.7963 7.18687 19.9086 7.15015 20.0142C7.11343 20.1197 7.05764 20.2165 6.98599 20.2989C6.91434 20.3814 6.82822 20.4479 6.73256 20.4946C6.6369 20.5414 6.53358 20.5675 6.4285 20.5714ZM10.4 19.7143C10.4 19.9416 10.3157 20.1596 10.1657 20.3204C10.0157 20.4811 9.81217 20.5714 9.6 20.5714C9.38783 20.5714 9.18434 20.4811 9.03432 20.3204C8.88429 20.1596 8.8 19.9416 8.8 19.7143V7.71429C8.8 7.48696 8.88429 7.26894 9.03432 7.10819C9.18434 6.94745 9.38783 6.85714 9.6 6.85714C9.81217 6.85714 10.0157 6.94745 10.1657 7.10819C10.3157 7.26894 10.4 7.48696 10.4 7.71429V19.7143ZM12 3.42857H7.2V2.14286C7.1994 2.0864 7.20933 2.03038 7.22922 1.97809C7.24911 1.9258 7.27855 1.8783 7.31581 1.83837C7.35308 1.79845 7.39741 1.7669 7.44622 1.74559C7.49502 1.72428 7.5473 1.71364 7.6 1.71429H11.6C11.6527 1.71364 11.705 1.72428 11.7538 1.74559C11.8026 1.7669 11.8469 1.79845 11.8842 1.83837C11.9215 1.8783 11.9509 1.9258 11.9708 1.97809C11.9907 2.03038 12.0006 2.0864 12 2.14286V3.42857ZM13.6 19.7448C13.5926 19.9668 13.5051 20.1771 13.3558 20.3313C13.2066 20.4855 13.0073 20.5716 12.8 20.5714H12.771C12.666 20.5674 12.5627 20.5413 12.4671 20.4945C12.3715 20.4477 12.2854 20.3812 12.2138 20.2988C12.1422 20.2163 12.0865 20.1196 12.0498 20.014C12.0131 19.9085 11.9962 19.7963 12 19.6838L12.4 7.68375C12.4037 7.57119 12.4281 7.46052 12.4718 7.35806C12.5155 7.2556 12.5775 7.16336 12.6545 7.0866C12.7314 7.00984 12.8217 6.95007 12.9202 6.9107C13.0187 6.87133 13.1234 6.85313 13.2285 6.85714C13.3336 6.86115 13.4368 6.88729 13.5325 6.93407C13.6281 6.98085 13.7142 7.04736 13.7858 7.12979C13.8575 7.21221 13.9133 7.30895 13.95 7.41448C13.9868 7.52001 14.0037 7.63226 14 7.74482L13.6 19.7448Z" fill="#CB2F2F"/>
</svg>
