<svg width="32" height="32" viewBox="0 0 32 32" fill="none" xmlns="http://www.w3.org/2000/svg">
<g id="card/menu/title/icon">
<path id="Vector" d="M16 30C23.732 30 30 23.732 30 16C30 8.26801 23.732 2 16 2C8.26801 2 2 8.26801 2 16C2 23.732 8.26801 30 16 30Z" stroke="#006EE9" stroke-width="3" stroke-miterlimit="10"/>
<path id="Vector_2" d="M16.0001 6.66669C14.1541 6.66669 12.3496 7.21408 10.8148 8.23964C9.2799 9.2652 8.08363 10.7229 7.37721 12.4283C6.67079 14.1338 6.48596 16.0104 6.84609 17.8209C7.20622 19.6314 8.09513 21.2944 9.40042 22.5997C10.7057 23.905 12.3688 24.7939 14.1792 25.154C15.9897 25.5141 17.8664 25.3293 19.5718 24.6229C21.2772 23.9165 22.7349 22.7202 23.7605 21.1853C24.786 19.6505 25.3334 17.846 25.3334 16C25.3281 13.5263 24.343 11.1554 22.5939 9.40625C20.8447 7.65706 18.4738 6.67202 16.0001 6.66669ZM17.1226 12.9402C16.2164 11.3379 15.2201 9.78828 14.1385 8.29876C14.6207 8.15122 15.1224 8.07724 15.6268 8.0793C15.7646 8.0793 15.9068 8.08434 16.0531 8.09443C17.9858 8.09383 19.8517 8.80195 21.2974 10.0847C21.1435 10.289 19.9201 11.8707 17.115 12.9402H17.1226ZM8.19792 14.3932C8.44196 13.1834 8.97212 12.0497 9.74407 11.0869C10.516 10.124 11.5073 9.36001 12.635 8.85876C13.6972 10.3336 14.6766 11.8663 15.5687 13.4497C13.1572 14.0515 10.6833 14.3681 8.19792 14.3932ZM18.4469 15.6948C18.3965 15.5661 18.3183 15.4148 18.2678 15.2861C18.114 14.8775 17.9096 14.5294 17.7331 14.1384C20.692 12.915 21.9936 11.1795 22.1702 10.9752C23.3198 12.3822 23.9662 14.1331 24.0066 15.9496C22.7812 15.7126 21.5364 15.591 20.2884 15.5863C19.6771 15.5847 19.0663 15.621 18.4595 15.6948H18.4469ZM8.46531 15.7806C11.0921 15.7607 13.7037 15.3805 16.2271 14.6505C16.4794 15.1096 16.6862 15.5687 16.8905 16.0278C16.7762 16.0286 16.6634 16.0544 16.5601 16.1034C12.4559 17.4278 10.2361 21.0753 10.0848 21.3553C8.76206 19.8944 8.02624 17.996 8.01882 16.0252V15.773C8.08189 15.773 8.23576 15.773 8.46783 15.773L8.46531 15.7806ZM20.4372 22.6292C20.0866 20.6945 19.5744 18.7926 18.906 16.9434C19.4548 16.8546 20.0099 16.8108 20.5658 16.8123C21.6858 16.816 22.8001 16.9722 23.8779 17.2764C23.6926 18.3537 23.2924 19.3828 22.7014 20.3024C22.1103 21.2219 21.3403 22.0132 20.4372 22.6292ZM16.0001 23.9561C14.2248 23.9397 12.5043 23.3395 11.1039 22.2483C11.2577 21.9683 12.8898 18.8555 17.3522 17.2764H17.4026C18.1605 19.2416 18.7323 21.2736 19.1104 23.3456C18.1264 23.7602 17.0677 23.968 16.0001 23.9561Z" fill="#006EE9"/>
</g>
</svg>
