<svg width="26" height="28" viewBox="0 0 26 28" fill="none" xmlns="http://www.w3.org/2000/svg">
<path d="M9.17974 25.6978V21.6208C9.17974 20.5801 10.0296 19.7364 11.078 19.7364H14.9102C15.4136 19.7364 15.8964 19.935 16.2524 20.2884C16.6084 20.6418 16.8084 21.1211 16.8084 21.6208V25.6978C16.8052 26.1305 16.9761 26.5465 17.2832 26.8536C17.5903 27.1607 18.0081 27.3334 18.444 27.3334H21.0585C22.2796 27.3365 23.4517 26.8571 24.3163 26.0011C25.1808 25.145 25.6667 23.9827 25.6667 22.7705V11.1558C25.6667 10.1766 25.2295 9.24781 24.4729 8.61958L15.5787 1.56785C14.0316 0.331436 11.8149 0.371356 10.3139 1.66266L1.62272 8.61958C0.830361 9.22929 0.356777 10.1609 0.333374 11.1558V22.7586C0.333374 25.2852 2.39655 27.3334 4.94161 27.3334H7.49643C8.40168 27.3334 9.13737 26.6083 9.14393 25.7097L9.17974 25.6978Z" fill="#006EE9"/>
</svg>
