<svg width="30" height="30" viewBox="0 0 30 30" fill="none" xmlns="http://www.w3.org/2000/svg">
<path d="M21.5097 -0.0012207C26.5947 -0.0012207 29.9997 3.56878 29.9997 8.87878V21.1353C29.9997 26.4303 26.5947 29.9988 21.5097 29.9988H8.50469C3.41969 29.9988 -0.000305176 26.4303 -0.000305176 21.1353V8.87878C-0.000305176 3.56878 3.41969 -0.0012207 8.50469 -0.0012207H21.5097ZM19.5147 10.4553C19.0047 9.94378 18.1797 9.94378 17.6547 10.4553L14.9997 13.1238L12.3297 10.4553C11.8047 9.94378 10.9797 9.94378 10.4697 10.4553C9.95969 10.9653 9.95969 11.8053 10.4697 12.3138L13.1397 14.9853L10.4697 17.6403C9.95969 18.1653 9.95969 18.9903 10.4697 19.4988C10.7247 19.7538 11.0697 19.8903 11.3997 19.8903C11.7447 19.8903 12.0747 19.7538 12.3297 19.4988L14.9997 16.8453L17.6697 19.4988C17.9247 19.7703 18.2547 19.8903 18.5847 19.8903C18.9297 19.8903 19.2597 19.7538 19.5147 19.4988C20.0247 18.9903 20.0247 18.1653 19.5147 17.6553L16.8447 14.9853L19.5147 12.3138C20.0247 11.8053 20.0247 10.9653 19.5147 10.4553Z" fill="white"/>
</svg>
