<svg width="26" height="28" viewBox="0 0 26 28" fill="none" xmlns="http://www.w3.org/2000/svg">
<path d="M9.17974 25.6979V21.6209C9.17974 20.5802 10.0296 19.7365 11.078 19.7365H14.9102C15.4136 19.7365 15.8964 19.935 16.2524 20.2884C16.6084 20.6418 16.8084 21.1211 16.8084 21.6209V25.6979C16.8052 26.1305 16.9761 26.5466 17.2832 26.8537C17.5903 27.1607 18.0081 27.3334 18.444 27.3334H21.0585C22.2796 27.3365 23.4517 26.8572 24.3163 26.0012C25.1808 25.1451 25.6667 23.9827 25.6667 22.7705V11.1559C25.6667 10.1767 25.2295 9.24787 24.4729 8.61964L15.5787 1.56791C14.0316 0.331497 11.8149 0.371418 10.3139 1.66272L1.62272 8.61964C0.830361 9.22935 0.356777 10.1609 0.333374 11.1559V22.7587C0.333374 25.2852 2.39655 27.3334 4.94161 27.3334H7.49643C8.40168 27.3334 9.13737 26.6084 9.14393 25.7097L9.17974 25.6979Z" fill="#ABCEF5"/>
</svg>
