<svg width="12" height="12" viewBox="0 0 12 12" fill="none" xmlns="http://www.w3.org/2000/svg">
<g clip-path="url(#clip0_439_863)">
<path d="M1.40663 7.73322L0.773295 10.4666C0.751447 10.5665 0.752196 10.67 0.775487 10.7696C0.798778 10.8692 0.844023 10.9623 0.907916 11.0422C0.97181 11.1221 1.05274 11.1866 1.14479 11.2312C1.23684 11.2758 1.33768 11.2993 1.43996 11.2999C1.4876 11.305 1.53566 11.305 1.5833 11.2999L4.3333 10.6666L9.6133 5.40655L6.66663 2.46655L1.40663 7.73322Z" fill="#006EE9"/>
<path d="M11.2733 2.77324L9.30666 0.806575C9.17736 0.67793 9.00238 0.605713 8.81999 0.605713C8.6376 0.605713 8.46262 0.67793 8.33332 0.806575L7.23999 1.89991L10.1833 4.84324L11.2767 3.74991C11.3406 3.6856 11.3913 3.60931 11.4258 3.5254C11.4602 3.44148 11.4778 3.3516 11.4775 3.26088C11.4772 3.17017 11.459 3.08041 11.424 2.99673C11.3889 2.91306 11.3377 2.83711 11.2733 2.77324Z" fill="#006EE9"/>
</g>
<defs>
<clipPath id="clip0_439_863">
<rect width="12" height="12" fill="white"/>
</clipPath>
</defs>
</svg>
